<?xml version="1.0" encoding="utf-8"?>
<!-- Generator: Adobe Illustrator 23.0.5, SVG Export Plug-In . SVG Version: 6.00 Build 0)  -->
<svg version="1.1" id="Capa_1" xmlns="http://www.w3.org/2000/svg" xmlns:xlink="http://www.w3.org/1999/xlink" x="0px" y="0px"
	 viewBox="0 0 512 512" style="enable-background:new 0 0 512 512;" xml:space="preserve">
<style type="text/css">
	.st0{fill:#5555FF;}
	.st1{fill:#FFDC8D;}
	.st2{fill:#F2CE86;}
	.st3{fill:#5C5E70;}
	.st4{fill:#F9EED7;}
	.st5{fill:#494B5B;}
	.st6{fill:#FFFFFF;}
	.st7{fill:#FCF8F2;}
</style>
<circle class="st0" cx="256" cy="256" r="256"/>
<path class="st1" d="M456.2,415.5c-20.5,25.7-45.9,47.4-74.8,63.7c-18.7,10.6-38.9,18.8-60.2,24.4h-10.7c-21.3,0-42.3-5.1-61.3-15
	l-111.7-58.3L113,416.8L86.2,402l135.3-6.3c15.3,0,11.5-37.5,11.5-52.8l73.2-126.9l90.9,90.9c12.4,12.4,22.1,27.1,28.7,43
	c6.6,15.9,10.1,33.1,10.1,50.7L456.2,415.5z"/>
<g>
	<path class="st2" d="M381.5,479.2c-18.7,10.6-38.9,18.8-60.2,24.4h-10.7c-21.3,0-42.3-5.1-61.3-15l-111.7-58.3L113,416.8
		l156.7,11.8C269.7,428.6,300,479.2,381.5,479.2C381.5,479.2,381.5,479.2,381.5,479.2z"/>
	<path class="st2" d="M86.7,165.1H71.4c-0.8,0-1.5-0.1-2.3-0.1c-8,0-16,3.1-22.2,9.2c-12.2,12.2-12.2,32.1,0,44.3l17.2,17.3
		c-6.7,0.8-13.3,3.8-18.5,8.9c-12.2,12.2-12.2,32.1,0,44.3l9.1,9.1c2.6,2.6,5.6,4.7,8.8,6.2c0.2-0.1,0.4-0.3,0.6-0.4v0.7
		c-0.2-0.1-0.4-0.2-0.6-0.3c-1.5,1-3,2.2-4.3,3.6c-12.2,12.2-12.2,32.1,0,44.3l9.1,9.1c1,1,2,1.9,3.1,2.7v-24h15.3
		C86.7,339.9,86.7,165.1,86.7,165.1z"/>
</g>
<path class="st3" d="M278.5,0H99.1C83.8,0,71.4,12.4,71.4,27.7V401c0,15.3,12.4,27.7,27.7,27.7h170.6
	c-14.8-18.4-18.9-42.6-12.2-64.1l37.6-106.1l11.1,11.1V27.7C306.2,12.4,293.8,0,278.5,0"/>
<path class="st4" d="M214,226.4c-6.8,6.8-10.2,15.6-10.2,24.5c0,8.9,3.4,17.8,10.2,24.5l39.9,39.9c10.5,10.5,13.6,26.5,7.2,39.9
	c-1.4,3-2.7,6.1-3.6,9.3h-175V56.6h212.6v201.8l-32-32C249.6,212.8,227.6,212.8,214,226.4z"/>
<path class="st5" d="M210.7,397.4c0,8.1-4.4,15.2-11,19c1.8-3.2,2.9-6.9,2.9-10.9c0-12.1-9.8-21.9-21.9-21.9c-4,0-7.7,1.1-10.9,2.9
	c3.8-6.6,10.9-11,19-11C200.9,375.5,210.7,385.3,210.7,397.4z"/>
<path class="st2" d="M347.5,294.2l-27.4-27.4v-36.7l-13.9-13.9v53.3l33.1,33.1c3.7,3.7,10,1.1,10-4.1
	C349.2,296.8,348.6,295.3,347.5,294.2z"/>
<path class="st6" d="M260.8,273.4v-13.5h13.5v13.5H260.8 M209.7,249.5v-13.5h13.5v13.5V263h-13.5V249.5 M247.2,249.5v-13.5h13.5
	v13.5H247.2 M241.9,216.4v3h-13.5v-1.6c-5.2,1.6-10.2,4.5-14.3,8.6c-1.7,1.7-3.3,3.6-4.6,5.6v3.7h-2.1c-2.3,4.8-3.5,10-3.5,15.2
	c0,8.9,3.4,17.8,10.2,24.5l39.9,39.9c10.5,10.5,13.6,26.5,7.2,39.9c-1.4,3-2.7,6.1-3.6,9.3h-30.6v0h30.6
	c-6.7,21.6-2.7,45.7,12.2,64.1h5.9c16.8,0,30.5-13.6,30.6-30.3V269.4l-11.1-11.1l-20.8-20.8v11.9h-13.5v-13.5h11.9l-9.6-9.6
	C257.2,220.4,249.6,217.1,241.9,216.4 M295.1,56.6H179.9v0L295.1,56.6L295.1,56.6"/>
<g>
	<rect x="128.3" y="127.4" class="st3" width="13.5" height="13.5"/>
	<rect x="128.3" y="234.8" class="st3" width="13.5" height="13.5"/>
	<path class="st3" d="M210.7,102.4V166h63.7v-63.7H210.7z M258.7,150.4h-32.4V118h32.4V150.4z"/>
	<rect x="235.7" y="127.4" class="st3" width="13.5" height="13.5"/>
	<polygon class="st3" points="195.6,208.2 195.6,194.7 182,194.7 182,208.2 182,221.7 195.6,221.7 195.6,222.1 195.6,235.6 
		209.1,235.6 209.1,222.1 209.1,208.6 195.6,208.6 	"/>
	<polygon class="st3" points="247.2,177.4 247.2,191 260.8,191 274.3,191 274.3,177.4 260.8,177.4 	"/>
	<rect x="182.4" y="235.9" class="st3" width="13.5" height="13.5"/>
	<rect x="168.5" y="181.1" class="st3" width="13.5" height="13.5"/>
	<rect x="260.5" y="206.7" class="st3" width="13.5" height="13.5"/>
	<polygon class="st3" points="228.4,178.8 214.8,178.8 201.3,178.8 201.3,192.3 214.8,192.3 214.8,205.8 228.4,205.8 228.4,219.4 
		241.9,219.4 241.9,205.8 241.9,192.3 228.4,192.3 	"/>
	<path class="st3" d="M134.5,181.1v13.5H148v-13.5V166h18.9v-63.7h-63.7V166h31.2L134.5,181.1L134.5,181.1z M118.9,118h32.4v32.4
		h-32.4C118.9,150.4,118.9,118,118.9,118z"/>
	<path class="st3" d="M116.8,181.1h-13.5v28.6v5.8v57.9h63.7v-63.7h-50.1L116.8,181.1L116.8,181.1z M118.9,225.4h32.4v32.4h-32.4
		C118.9,257.8,118.9,225.4,118.9,225.4z"/>
	<polygon class="st3" points="195.6,154.5 195.6,141 195.6,127.4 182,127.4 182,141 182,154.5 182,168.1 195.6,168.1 	"/>
</g>
<path class="st1" d="M295.1,258.4l-32-32c-13.5-13.5-35.5-13.5-49,0c-6.8,6.8-10.2,15.6-10.2,24.5c0,8.9,3.4,17.8,10.2,24.5
	l39.9,39.9c10.5,10.5,13.6,26.5,7.2,39.9c-1.4,3-2.7,6.1-3.6,9.3c-6.7,21.6-2.7,45.7,12.2,64.1l13.5,14.7
	c15.3,0,40.8-19.2,40.8-34.5l-17.7-139.4L295.1,258.4z"/>
<path class="st4" d="M255.3,236.8c-8.2-8.2-21.4-8.2-29.6,0s-8.2,21.4,0,29.6s15.2,2,23.4-6.2C257.3,252.1,263.5,245,255.3,236.8z"
	/>
<circle class="st7" cx="247.3" cy="244.1" r="4.9"/>
</svg>
